<svg width="22" height="22" viewBox="0 0 22 22" fill="none" xmlns="http://www.w3.org/2000/svg">
<path d="M3.7599 9.5904C4.02511 9.62488 4.29316 9.55259 4.50508 9.38943C4.71699 9.22628 4.85542 8.98562 4.88989 8.7204C4.92437 8.45519 4.85208 8.18714 4.68893 7.97522C4.52577 7.7633 4.28511 7.62488 4.01989 7.5904L2.25989 7.1504C2.13158 7.11107 1.99666 7.09796 1.86318 7.11187C1.72969 7.12577 1.60037 7.16641 1.48292 7.23135C1.36547 7.29629 1.2623 7.3842 1.17954 7.48986C1.09679 7.59551 1.03614 7.71675 1.00123 7.84633C0.966315 7.97592 0.957842 8.11121 0.976316 8.24414C0.99479 8.37707 1.03983 8.50492 1.10876 8.62007C1.17769 8.73523 1.26909 8.83533 1.37752 8.91441C1.48595 8.9935 1.60919 9.04995 1.73989 9.0804L3.49989 9.5504C3.58367 9.57836 3.67159 9.59189 3.7599 9.5904ZM7.61989 4.0004C7.6785 4.21856 7.80923 4.41046 7.99082 4.54483C8.1724 4.6792 8.39413 4.74814 8.61989 4.7404C8.70601 4.75423 8.79378 4.75423 8.8799 4.7404C9.13371 4.67019 9.34958 4.50269 9.48064 4.27427C9.6117 4.04585 9.64736 3.77496 9.5799 3.5204L9.10989 1.7604C9.07944 1.6297 9.02299 1.50646 8.94391 1.39803C8.86482 1.2896 8.76472 1.19819 8.64956 1.12927C8.53441 1.06034 8.40656 1.0153 8.27363 0.996824C8.1407 0.97835 8.00541 0.986823 7.87582 1.02174C7.74624 1.05665 7.62501 1.11729 7.51935 1.20005C7.4137 1.28281 7.32578 1.38598 7.26084 1.50343C7.1959 1.62088 7.15527 1.7502 7.14136 1.88369C7.12745 2.01717 7.14056 2.15209 7.1799 2.2804L7.61989 4.0004ZM12.4499 14.0004C12.3565 13.9021 12.244 13.8238 12.1194 13.7703C11.9948 13.7167 11.8605 13.6892 11.7249 13.6892C11.5893 13.6892 11.455 13.7167 11.3304 13.7703C11.2058 13.8238 11.0933 13.9021 10.9999 14.0004L7.4999 17.5604C7.08838 17.9552 6.54017 18.1757 5.96989 18.1757C5.39961 18.1757 4.85141 17.9552 4.43989 17.5604C4.23732 17.3604 4.07648 17.1222 3.9667 16.8595C3.85692 16.5969 3.80039 16.3151 3.80039 16.0304C3.80039 15.7457 3.85692 15.4639 3.9667 15.2013C4.07648 14.9386 4.23732 14.7004 4.43989 14.5004L7.9999 11.0004C8.10458 10.9108 8.1896 10.8004 8.24962 10.6764C8.30964 10.5523 8.34337 10.4172 8.34869 10.2795C8.35401 10.1417 8.33081 10.0044 8.28053 9.87608C8.23026 9.74775 8.154 9.63121 8.05655 9.53375C7.95909 9.4363 7.84254 9.36004 7.71422 9.30976C7.58589 9.25949 7.44856 9.23628 7.31084 9.2416C7.17312 9.24692 7.03799 9.28065 6.91393 9.34068C6.78986 9.4007 6.67954 9.48572 6.5899 9.5904L2.99989 13.0804C2.61118 13.4691 2.30284 13.9306 2.09247 14.4385C1.8821 14.9463 1.77382 15.4907 1.77382 16.0404C1.77382 16.5901 1.8821 17.1345 2.09247 17.6423C2.30284 18.1502 2.61118 18.6117 2.99989 19.0004C3.38861 19.3891 3.85008 19.6975 4.35795 19.9078C4.86583 20.1182 5.41017 20.2265 5.9599 20.2265C6.50962 20.2265 7.05396 20.1182 7.56184 19.9078C8.06971 19.6975 8.53118 19.3891 8.9199 19.0004L12.4499 15.4704C12.5514 15.3768 12.6324 15.2631 12.6878 15.1366C12.7432 15.0101 12.7718 14.8735 12.7718 14.7354C12.7718 14.5973 12.7432 14.4607 12.6878 14.3342C12.6324 14.2077 12.5514 14.094 12.4499 14.0004ZM4.17989 5.5904C4.36616 5.77515 4.61756 5.8793 4.87989 5.8804C5.0115 5.88116 5.14196 5.85594 5.2638 5.80617C5.38564 5.75641 5.49646 5.68308 5.5899 5.5904C5.77615 5.40304 5.88069 5.14959 5.88069 4.8854C5.88069 4.62122 5.77615 4.36776 5.5899 4.1804L4.2999 2.8904C4.10859 2.72658 3.86252 2.64097 3.61084 2.65069C3.35917 2.66041 3.12043 2.76474 2.94233 2.94284C2.76424 3.12093 2.6599 3.35967 2.65018 3.61135C2.64046 3.86303 2.72607 4.1091 2.88989 4.3004L4.17989 5.5904ZM20.2599 12.9204L18.4999 12.4504C18.3695 12.4053 18.2311 12.3877 18.0936 12.3987C17.956 12.4097 17.8222 12.449 17.7006 12.5143C17.579 12.5795 17.4722 12.6692 17.3869 12.7777C17.3017 12.8862 17.2398 13.0112 17.2052 13.1447C17.1706 13.2783 17.164 13.4176 17.1858 13.5539C17.2077 13.6902 17.2575 13.8204 17.3321 13.9365C17.4068 14.0525 17.5047 14.1519 17.6196 14.2283C17.7345 14.3047 17.864 14.3565 17.9999 14.3804L19.7599 14.8504H20.0199C20.2851 14.8849 20.5532 14.8126 20.7651 14.6494C20.977 14.4863 21.1154 14.2456 21.1499 13.9804C21.1844 13.7152 21.1121 13.4471 20.9489 13.2352C20.7858 13.0233 20.5451 12.8849 20.2799 12.8504L20.2599 12.9204ZM14.3799 18.0004C14.3452 17.8736 14.2858 17.7549 14.2052 17.6511C14.1246 17.5473 14.0243 17.4604 13.91 17.3954C13.7958 17.3304 13.6698 17.2885 13.5394 17.2722C13.409 17.2559 13.2766 17.2655 13.1499 17.3004C12.8961 17.3706 12.6802 17.5381 12.5492 17.7665C12.4181 17.9949 12.3824 18.2658 12.4499 18.5204L12.9199 20.2804C12.9785 20.4986 13.1092 20.6905 13.2908 20.8248C13.4724 20.9592 13.6941 21.0281 13.9199 21.0204C14.0063 21.0302 14.0935 21.0302 14.1799 21.0204C14.3076 20.9868 14.4273 20.9282 14.5322 20.848C14.6372 20.7678 14.7252 20.6677 14.7912 20.5533C14.8572 20.439 14.8999 20.3127 14.9168 20.1817C14.9338 20.0508 14.9246 19.9178 14.8899 19.7904L14.3799 18.0004ZM17.8199 16.4304C17.6286 16.2666 17.3825 16.181 17.1308 16.1907C16.8792 16.2004 16.6404 16.3047 16.4623 16.4828C16.2842 16.6609 16.1799 16.8997 16.1702 17.1514C16.1605 17.403 16.2461 17.6491 16.4099 17.8404L17.6999 19.1304C17.8873 19.3167 18.1407 19.4212 18.4049 19.4212C18.6691 19.4212 18.9225 19.3167 19.1099 19.1304C19.2961 18.943 19.4007 18.6896 19.4007 18.4254C19.4007 18.1612 19.2961 17.9078 19.1099 17.7204L17.8199 16.4304ZM20.1999 6.0004C20.2154 5.16884 19.9814 4.35171 19.5279 3.6545C19.0744 2.9573 18.4224 2.41202 17.6559 2.08908C16.8895 1.76614 16.0438 1.68035 15.2281 1.8428C14.4124 2.00525 13.6641 2.40847 13.0799 3.0004L9.5499 6.5604C9.45534 6.65561 9.38047 6.76851 9.32955 6.89266C9.27863 7.0168 9.25266 7.14976 9.25313 7.28394C9.25359 7.41812 9.28048 7.55089 9.33226 7.67468C9.38403 7.79847 9.45969 7.91085 9.5549 8.0054C9.6501 8.09995 9.763 8.17483 9.88715 8.22575C10.0113 8.27667 10.1442 8.30264 10.2784 8.30217C10.4126 8.30171 10.5454 8.27482 10.6692 8.22304C10.793 8.17126 10.9053 8.09561 10.9999 8.0004L14.4999 4.4404C14.9114 4.04559 15.4596 3.82514 16.0299 3.82514C16.6002 3.82514 17.1484 4.04559 17.5599 4.4404C17.7625 4.64039 17.9233 4.87862 18.0331 5.14127C18.1429 5.40391 18.1994 5.68574 18.1994 5.9704C18.1994 6.25507 18.1429 6.53689 18.0331 6.79954C17.9233 7.06218 17.7625 7.30041 17.5599 7.5004L13.9999 11.0004C13.8136 11.1878 13.7091 11.4412 13.7091 11.7054C13.7091 11.9696 13.8136 12.223 13.9999 12.4104C14.1873 12.5967 14.4407 12.7012 14.7049 12.7012C14.9691 12.7012 15.2225 12.5967 15.4099 12.4104L18.9999 8.9204C19.7653 8.14075 20.1959 7.09296 20.1999 6.0004Z" fill="black"/>
</svg>
