<svg width="24" height="24" viewBox="0 0 24 24" fill="none" xmlns="http://www.w3.org/2000/svg">
<path d="M20.3174 6.44922C21.3794 8.03744 22 9.94597 22 12C22 17.5228 17.5228 22 12 22C9.94597 22 8.03744 21.3794 6.44922 20.3174L7.89746 18.8691C8.1053 18.9935 8.31955 19.1093 8.53906 19.2148C8.42795 19.0018 8.32258 18.7776 8.22168 18.5449L9.76562 17.001C9.91045 17.4229 10.073 17.8169 10.2529 18.1768C10.8808 19.4325 11.5522 20 12 20C12.4478 20 13.1192 19.4325 13.7471 18.1768C14.4212 16.8284 14.8617 15.0044 14.9727 13.001H13.7666L16.8857 9.88086C16.9252 10.2469 16.9567 10.6202 16.9756 11H19.9385C19.7984 9.87687 19.425 8.82617 18.8691 7.89746L20.3174 6.44922ZM16.9756 13.001C16.8546 15.4347 16.2968 17.6119 15.4619 19.2148C17.86 18.0612 19.5947 15.7474 19.9375 13.001H16.9756ZM12 2C14.0535 2 15.9618 2.62006 17.5498 3.68164L16.1016 5.12988C15.8941 5.00575 15.68 4.89047 15.4609 4.78516L15.4844 4.82715C15.5873 5.02713 15.6853 5.23619 15.7793 5.45312L14.2334 6.99805C14.0887 6.57654 13.9268 6.18274 13.7471 5.82324C13.1192 4.56746 12.4478 4 12 4L11.9189 4.00586C11.4736 4.0691 10.8439 4.64133 10.2529 5.82324C9.57867 7.17178 9.13821 8.99622 9.02734 11H10.2324L7.11328 14.1182C7.0897 13.8995 7.06904 13.6778 7.05273 13.4541L7.02441 13.001H4.0625C4.20259 14.1232 4.57458 15.1734 5.12988 16.1016L3.68164 17.5498C2.62006 15.9618 2 14.0535 2 12C2 6.47715 6.47715 2 12 2ZM8.51172 4.79883C6.12677 5.95625 4.40282 8.26347 4.06152 11H7.02441C7.14528 8.56583 7.70307 6.38831 8.53809 4.78516L8.51172 4.79883Z" stroke-width="0"/>
<path d="M20.5 2.5L2.5 20.5C2.22386 20.7761 2.22386 21.2239 2.5 21.5C2.77614 21.7761 3.22386 21.7761 3.5 21.5L21.5 3.5C21.7761 3.22386 21.7761 2.77614 21.5 2.5C21.2239 2.22386 20.7761 2.22386 20.5 2.5Z" stroke-width="0.5"/>
</svg>
