<svg width="16" height="16" viewBox="0 0 16 16" fill="none" xmlns="http://www.w3.org/2000/svg">
<path fill-rule="evenodd" clip-rule="evenodd" d="M3.71995 3.72015C3.86057 3.5797 4.0512 3.50081 4.24995 3.50081C4.4487 3.50081 4.63932 3.5797 4.77995 3.72015L7.99995 6.94015L11.22 3.72015C11.2887 3.64646 11.3715 3.58736 11.4635 3.54637C11.5555 3.50538 11.6548 3.48334 11.7555 3.48156C11.8562 3.47978 11.9562 3.49831 12.0496 3.53603C12.143 3.57375 12.2278 3.62989 12.299 3.70111C12.3703 3.77233 12.4264 3.85717 12.4641 3.95055C12.5018 4.04394 12.5204 4.14397 12.5186 4.24467C12.5168 4.34538 12.4948 4.44469 12.4538 4.53669C12.4128 4.62869 12.3537 4.71149 12.28 4.78015L9.05995 8.00015L12.28 11.2202C12.3537 11.2889 12.4128 11.3717 12.4538 11.4637C12.4948 11.5557 12.5168 11.655 12.5186 11.7557C12.5204 11.8564 12.5018 11.9564 12.4641 12.0498C12.4264 12.1432 12.3703 12.228 12.299 12.2992C12.2278 12.3705 12.143 12.4266 12.0496 12.4643C11.9562 12.502 11.8562 12.5206 11.7555 12.5188C11.6548 12.517 11.5555 12.495 11.4635 12.454C11.3715 12.413 11.2887 12.3539 11.22 12.2802L7.99995 9.06015L4.77995 12.2802C4.63777 12.4127 4.44972 12.4848 4.25542 12.4814C4.06112 12.4779 3.87574 12.3992 3.73832 12.2618C3.60091 12.1244 3.5222 11.939 3.51877 11.7447C3.51534 11.5504 3.58747 11.3624 3.71995 11.2202L6.93995 8.00015L3.71995 4.78015C3.5795 4.63953 3.50061 4.4489 3.50061 4.25015C3.50061 4.0514 3.5795 3.86078 3.71995 3.72015Z" fill="white"/>
</svg>
